<svg id="birthday-cake_1_" data-name="birthday-cake (1)" xmlns="http://www.w3.org/2000/svg" width="432.923" height="424.668" viewBox="0 0 432.923 424.668">
  <path id="XMLID_62_" d="M130.463,78.461A25.773,25.773,0,0,0,156.23,52.685c0-9.487-11.443-30.793-19.079-43.952a7.733,7.733,0,0,0-13.378,0C116.139,21.892,104.7,43.2,104.7,52.685A25.773,25.773,0,0,0,130.463,78.461Z" transform="translate(-16.17 -4.88)" fill="#fff"/>
  <path id="XMLID_123_" d="M251.294,78.461a25.772,25.772,0,0,0,25.767-25.776c0-9.487-11.443-30.793-19.079-43.952a7.734,7.734,0,0,0-13.378,0c-7.634,13.159-19.077,34.465-19.077,43.952A25.772,25.772,0,0,0,251.294,78.461Z" transform="translate(-34.832 -4.88)" fill="#fff"/>
  <path id="XMLID_122_" d="M372.122,78.461A25.773,25.773,0,0,0,397.89,52.685c0-9.487-11.444-30.793-19.078-43.952a7.734,7.734,0,0,0-13.379,0C357.8,21.892,346.356,43.2,346.356,52.685A25.772,25.772,0,0,0,372.122,78.461Z" transform="translate(-53.493 -4.88)" fill="#fff"/>
  <path id="XMLID_121_" d="M116.306,116.951a11.415,11.415,0,0,0-11.412,11.417v92.1h51.2v-92.1a11.414,11.414,0,0,0-11.412-11.417H116.306Z" transform="translate(-16.201 -22.189)" fill="#fff"/>
  <path id="XMLID_120_" d="M237.136,116.951a11.415,11.415,0,0,0-11.412,11.417v92.1h51.2v-92.1a11.415,11.415,0,0,0-11.412-11.417H237.136Z" transform="translate(-34.862 -22.189)" fill="#fff"/>
  <path id="XMLID_61_" d="M357.968,116.951a11.416,11.416,0,0,0-11.413,11.417v92.1h51.2v-92.1a11.414,11.414,0,0,0-11.413-11.417H357.968Z" transform="translate(-53.525 -22.189)" fill="#fff"/>
  <path id="XMLID_52_" d="M62.731,343.486a22.092,22.092,0,0,0,6.278-.912l32.018-9.478a114.53,114.53,0,0,1,64.583,0l25.272,7.481a114.486,114.486,0,0,0,64.583,0l25.272-7.481a114.531,114.531,0,0,1,64.583,0l32.018,9.478a22.093,22.093,0,0,0,6.278.912c10.246,0,19.268-7.169,19.268-16.695v-32.7c0-10.84-10.164-19.628-22.7-19.628H66.166c-12.538,0-22.7,8.787-22.7,19.628v32.7C43.464,336.316,52.486,343.486,62.731,343.486Z" transform="translate(-6.713 -46.518)" fill="#fff"/>
  <path id="XMLID_51_" d="M420.24,460.314H385.618V382.532a47.206,47.206,0,0,1-22.192-1.14l-32.018-9.477a89.149,89.149,0,0,0-50.182,0L255.954,379.4a139.9,139.9,0,0,1-78.984,0L151.7,371.915a89.149,89.149,0,0,0-50.182,0L69.5,381.392a47.234,47.234,0,0,1-22.192,1.142v77.78H12.683a12.683,12.683,0,0,0,0,25.367H420.24a12.683,12.683,0,0,0,0-25.367Z" transform="translate(0 -61.013)" fill="#fff"/>
</svg>
