<svg id="Group_35" data-name="Group 35" xmlns="http://www.w3.org/2000/svg" width="285.836" height="424.667" viewBox="0 0 285.836 424.667">
  <g id="patent" transform="translate(0 0)">
    <path id="Path_24" data-name="Path 24" d="M298.084,290a53.044,53.044,0,0,0-36.75,91.333q1.788,1.72,3.732,3.27a.011.011,0,0,1,.006.006q.965.767,1.963,1.491c.013.009.026.018.039.029q.981.709,2,1.376c.03.02.061.039.091.058q.992.647,2.011,1.251c.054.032.108.062.16.093q.992.581,2.007,1.121c.08.042.162.083.242.124.655.342,1.315.674,1.985.99.115.053.233.1.349.159.641.3,1.286.583,1.94.853.155.065.311.122.466.185.622.25,1.247.5,1.881.723.2.071.4.134.6.2.6.207,1.2.411,1.808.6.244.075.493.139.739.21.572.164,1.141.331,1.719.477.3.075.6.138.9.208.534.125,1.068.254,1.607.364.359.072.723.129,1.085.194.491.088.981.183,1.476.257.43.066.865.112,1.3.167s.869.119,1.308.162c.534.055,1.074.086,1.613.123.347.026.69.061,1.038.079q1.336.068,2.69.067t2.688-.067c.349-.018.692-.053,1.038-.079.539-.037,1.079-.068,1.613-.123.439-.043.872-.107,1.308-.162s.868-.1,1.3-.167c.5-.074.985-.169,1.477-.257.362-.065.726-.122,1.084-.194.539-.11,1.073-.238,1.608-.364.3-.07.6-.133.9-.208.578-.146,1.149-.312,1.719-.477.245-.072.5-.136.739-.21.609-.186,1.21-.391,1.809-.6.2-.068.4-.131.6-.2.633-.227,1.258-.473,1.88-.723.156-.063.313-.12.467-.185.654-.27,1.3-.557,1.94-.853.115-.055.233-.1.349-.159.669-.315,1.33-.647,1.984-.99.08-.042.162-.083.242-.124q1.017-.539,2.006-1.121l.161-.093q1.019-.6,2.011-1.251c.03-.019.06-.038.09-.058q1.016-.665,2-1.376l.039-.029q1-.723,1.963-1.491l.007-.006q1.943-1.55,3.733-3.27A53.044,53.044,0,0,0,298.084,290Z" transform="translate(-114.332 -53.167)" fill="#fff"/>
    <path id="Path_25" data-name="Path 25" d="M358.585,0H97.25A12.25,12.25,0,0,0,85,12.25V359.333a12.25,12.25,0,0,0,12.25,12.25H207.5V337.6a76.746,76.746,0,0,1-16.333-47.688,77.584,77.584,0,0,1,155.168,0A76.747,76.747,0,0,1,330,337.6v33.978h28.583a12.25,12.25,0,0,0,12.25-12.25V12.25A12.25,12.25,0,0,0,358.585,0ZM146.25,53.083h49a12.25,12.25,0,1,1,0,24.5h-49a12.25,12.25,0,1,1,0-24.5Zm163.335,147h-49a12.25,12.25,0,1,1,0-24.5h49a12.25,12.25,0,1,1,0,24.5Zm0-40.833H146.25a12.25,12.25,0,1,1,0-24.5H309.585a12.25,12.25,0,1,1,0,24.5Zm0-40.833H146.25a12.25,12.25,0,1,1,0-24.5H309.585a12.25,12.25,0,1,1,0,24.5Z" transform="translate(-85)" fill="#fff"/>
    <path id="Path_26" data-name="Path 26" d="M265,438.647v54.188a12.249,12.249,0,0,0,19.044,10.193l17.706-11.806,17.706,11.806A12.25,12.25,0,0,0,338.5,492.835V438.647a77.472,77.472,0,0,1-73.5,0Z" transform="translate(-117.999 -80.418)" fill="#fff"/>
  </g>
</svg>
