<svg id="graduation-hat" xmlns="http://www.w3.org/2000/svg" width="509.806" height="406.124" viewBox="0 0 509.806 406.124">
  <path id="Path_27" data-name="Path 27" d="M254.9,225.914c15.825,0,30.857-1.895,42.33-5.336l186.241-55.872c21.763-6.532,26.332-17.591,26.332-25.718s-4.57-19.186-26.334-25.713L297.233,57.4c-11.472-3.441-26.5-5.336-42.33-5.336s-30.855,1.894-42.33,5.336L26.336,113.274C4.568,119.8,0,130.861,0,138.987S4.568,158.173,26.334,164.7l186.241,55.873c11.473,3.443,26.5,5.337,42.328,5.337Z" transform="translate(0 -52.065)" fill="#048e81"/>
  <path id="Path_28" data-name="Path 28" d="M255.316,256.494c-18.925,0-36.531-2.281-50.912-6.6l-108-32.4v42.183c0,13.98,9.088,33.674,52.384,48.107,28.676,9.56,66.511,14.824,106.531,14.824s77.855-5.264,106.531-14.824c43.3-14.432,52.384-34.126,52.384-48.107V217.5l-108,32.4C291.844,254.213,274.239,256.494,255.316,256.494Z" transform="translate(-0.413 -52.774)" fill="#048e81"/>
  <path id="Path_29" data-name="Path 29" d="M479.6,303.41V198.216l-29.871,8.961v96.234a47.009,47.009,0,0,0-32,44.483v63.99a46.931,46.931,0,1,0,93.862,0v-63.99A47.007,47.007,0,0,0,479.6,303.41Z" transform="translate(-1.79 -52.691)" fill="#048e81"/>
</svg>
